<svg width="15" height="15" fill="none" xmlns="http://www.w3.org/2000/svg"><path d="M14.22 11.57 11 8.642a.792.792 0 0 0-1.101.034l-1.895 1.949c-.456-.088-1.372-.373-2.316-1.315-.944-.944-1.23-1.863-1.314-2.316L6.32 5.1a.792.792 0 0 0 .034-1.102L3.43.781a.792.792 0 0 0-1.1-.069L.61 2.186a.792.792 0 0 0-.23.513C.37 2.897.144 7.585 3.78 11.222c3.171 3.171 7.144 3.403 8.238 3.403.16 0 .258-.005.284-.006a.786.786 0 0 0 .513-.23l1.472-1.72a.79.79 0 0 0-.067-1.1Z" fill="#DCD7C0"/><path d="M14.22 11.57 11 8.642a.792.792 0 0 0-1.101.034l-1.895 1.949c-.456-.088-1.372-.373-2.316-1.315-.944-.944-1.23-1.863-1.314-2.316L6.32 5.1a.792.792 0 0 0 .034-1.102L3.43.781a.792.792 0 0 0-1.1-.069L.61 2.186a.792.792 0 0 0-.23.513C.37 2.897.144 7.585 3.78 11.222c3.171 3.171 7.144 3.403 8.238 3.403.16 0 .258-.005.284-.006a.786.786 0 0 0 .513-.23l1.472-1.72a.79.79 0 0 0-.067-1.1Z" fill="url(#a)"/><defs><linearGradient id="a" x1="4.963" y1=".522" x2="9.869" y2="2.021" gradientUnits="userSpaceOnUse"><stop stop-color="#E0DEDE"/><stop offset=".984" stop-color="#A2A0A0"/></linearGradient></defs></svg>