<svg xmlns="http://www.w3.org/2000/svg" viewBox="0 0 24 24" width="30" height="30"><path d="M12 2C6.489 2 2 6.489 2 12s4.489 10 10 10 10-4.489 10-10S17.511 2 12 2zm0 2c4.43 0 8 3.57 8 8s-3.57 8-8 8-8-3.57-8-8 3.57-8 8-8zM6.445 8.5c-.38 0-.445.187-.445.387 0 .36.3 2.31 1.938 4.55C9.123 15.065 10.688 16 12.073 16c.84 0 .926-.214.926-.547v-1.486c0-.401.092-.467.36-.467.19 0 .578.125 1.328 1 .864 1.009 1.021 1.5 1.517 1.5h1.31c.305 0 .48-.127.487-.375a.78.78 0 0 0-.03-.213c-.096-.288-.54-.991-1.095-1.662a19.51 19.51 0 0 1-.75-.94c-.095-.13-.131-.222-.127-.31.004-.092.052-.182.125-.305-.013 0 1.679-2.374 1.844-3.174A.631.631 0 0 0 18 8.812c-.008-.18-.133-.312-.426-.312h-1.308c-.33 0-.484.2-.573.4 0 0-.814 1.68-1.755 2.787-.306.32-.46.313-.626.313-.087 0-.312-.106-.312-.4V9.008c0-.347-.085-.508-.365-.508H10.31c-.204 0-.311.16-.311.32 0 .333.449.415.5 1.35v1.81c0 .44-.075.52-.24.52-.445 0-1.321-1.5-1.908-3.467-.127-.387-.254-.533-.584-.533H6.445z"/></svg>